PathFileType	4	(X/Y/Z)	S01_0012_Gait_markers.trc
DataRate	CameraRate	NumFrames	NumMarkers	Units	OrigDataRate	OrigDataStartFrame	OrigNumFrames
250.000000	250.000000	4	54	mm	250.000000	40	321
Frame#	Time	HEAD_ANT			R_HEAD			L_HEAD			C7			R_BACK			L_BACK			STERNUM			R_ACROMION			R_HUM_PROX			R_HUM_ANT			R_HUM_POST			R_ELBOW_LAT			R_ELBOW_MED			R_FOREARM			R_WIRST_LAT			R_WRITS_MED			R_HAND			L_ACROMION			L_HUM_PROX			L_HUM_ANT			L_HUM_POST			L_ELBOW_LAT			L_ELBOW_MED			L_FOREARM			L_WRIST_LAT			L_WIRST_MED			L_HAND			R_ILIAC			SACRUM			L_ILIAC			R_GTROCH			R_THIGH__1			R_THIGH_2			R_THIGH_3			R_THIGH_4			R_SHANK_1			R_SHANK_2			R_SHANK_3			R_SHANK_4			R_HEEL			R_FOOT_LAT			R_FOOT_MED			L_GTROCH			L_THIGH_1			L_THIGH_2			L_THIGH_3			L_THIGH_4			L_SHANK_1			L_SHANK_2			L_SHANK_3			L_SHANK_4			L_HEEL			L_FOOT_LAT			L_FOOT_MED			
		X1	Y1	Z1	X2	Y2	Z2	X3	Y3	Z3	X4	Y4	Z4	X5	Y5	Z5	X6	Y6	Z6	X7	Y7	Z7	X8	Y8	Z8	X9	Y9	Z9	X10	Y10	Z10	X11	Y11	Z11	X12	Y12	Z12	X13	Y13	Z13	X14	Y14	Z14	X15	Y15	Z15	X16	Y16	Z16	X17	Y17	Z17	X18	Y18	Z18	X19	Y19	Z19	X20	Y20	Z20	X21	Y21	Z21	X22	Y22	Z22	X23	Y23	Z23	X24	Y24	Z24	X25	Y25	Z25	X26	Y26	Z26	X27	Y27	Z27	X28	Y28	Z28	X29	Y29	Z29	X30	Y30	Z30	X31	Y31	Z31	X32	Y32	Z32	X33	Y33	Z33	X34	Y34	Z34	X35	Y35	Z35	X36	Y36	Z36	X37	Y37	Z37	X38	Y38	Z38	X39	Y39	Z39	X40	Y40	Z40	X41	Y41	Z41	X42	Y42	Z42	X43	Y43	Z43	X44	Y44	Z44	X45	Y45	Z45	X46	Y46	Z46	X47	Y47	Z47	X48	Y48	Z48	X49	Y49	Z49	X50	Y50	Z50	X51	Y51	Z51	X52	Y52	Z52	X53	Y53	Z53	X54	Y54	Z54	

41	0.16	373.26904296875	1708.986206054688	-301.9420166015621	314.0713500976562	1652.862182617188	-228.4372863769528	316.4849853515625	1663.221801757812	-375.7256469726559	180.9788360595703	1488.439331054688	-319.1073608398434	102.9715881347656	1291.274291992188	-265.4374389648435	113.4636383056641	1297.411010742188	-400.4143066406247	357.1243896484375	1323.577392578125	-308.6452331542966	243.1192932128906	1435.392456054688	-142.5629425048825	184.7829895019531	1276.522827148438	-62.46911239623995	238.9425506591797	1187.332397460938	-50.83481979370091	118.5097198486328	1197.371704101562	-59.65769577026341	157.3757934570312	1087.9404296875	-48.07770538330054	147.0601196289062	1083.510986328125	-129.5913238525388	241.259765625	898.4028930664062	-30.82039451599101	280.8766784667969	831.531005859375	-63.0899124145506	207.5506439208984	810.6895141601562	-41.01011276245099	270.0066528320312	741.5515747070312	-13.7388200759886	272.7796936035156	1446.84619140625	-482.534027099609	263.3303833007812	1281.3984375	-580.5060424804684	328.3359375	1202.928466796875	-573.2767333984373	210.7541961669922	1202.08447265625	-611.337219238281	274.9989624023438	1099.409790039063	-615.1407470703123	218.3742980957031	1087.357666015625	-562.0146484374998	404.5372924804688	942.7893066406251	-574.223693847656	441.7326354980469	893.8447265625001	-516.3569335937498	406.7386779785156	858.4256591796876	-579.7365722656248	492.7112426757812	823.4905395507814	-555.045715332031	245.72216796875	1037.749755859375	-151.0563354492185	123.6343307495117	1017.445495605469	-321.3480834960935	246.6530914306641	1029.784790039062	-497.3473205566404	220.4228668212891	893.2604370117188	-134.742233276367	345.8251647949219	634.421630859375	-168.0538940429686	393.6795043945312	669.4705200195312	-165.1401367187499	431.3155822753906	576.9755249023438	-196.4817962646483	370.3163757324219	557.2317504882812	-191.1163635253905	420.9050903320312	341.0979614257813	-187.6433105468749	477.7753295898438	332.5525817871094	-206.4177856445312	490.015625	248.8227081298829	-225.0936431884765	427.8958740234375	241.1736602783204	-209.6389007568359	423.0311584472656	36.9194412231446	-299.0502014160156	584.4205932617188	23.78678512573247	-214.3209991455078	637.2424926757812	47.61500167846686	-303.1983947753906	194.6180725097656	926.1146240234376	-499.083312988281	194.677490234375	635.5607910156251	-483.9842529296874	149.1717071533203	670.6831054687501	-497.435821533203	105.1346054077148	577.3377075195314	-469.4422607421874	166.4380645751953	560.9512329101564	-462.0915222167968	-11.18322563171387	335.4979248046876	-454.1251831054687	-69.86233520507812	350.8740539550782	-459.1913452148437	-121.5827102661133	282.648162841797	-440.6572570800781	-66.68500518798828	251.4839477539063	-429.9507446289062	-262.4209289550781	158.169403076172	-369.9353332519531	-139.6409759521484	22.82666015625009	-412.0101318359375	-105.3659744262695	32.9256782531739	-309.1579284667969	
42	0.164	379.1819763183594	1709.875366210938	-301.1376037597652	320.3778686523438	1653.529174804688	-227.7062530517574	322.5731811523438	1663.980712890625	-375.0484619140622	187.5288238525391	1489.087646484375	-318.4230041503903	109.4285278320312	1291.723876953125	-264.7567749023435	119.995361328125	1298.114990234375	-399.8525085449216	363.5653686523438	1324.460327148438	-308.1310729980466	249.6301574707031	1435.766723632812	-141.9177703857419	191.6575775146484	1276.823120117188	-62.1618003845212	245.9659729003906	1187.78369140625	-50.73509979248021	125.4967193603516	1197.633544921875	-59.09671020507786	164.1437225341797	1088.125122070312	-47.9462509155271	154.1953125	1083.799438476562	-129.4868164062498	248.4199371337891	898.568359375	-30.95226287841777	287.7744140625	831.6876831054688	-63.22594070434552	214.4555358886719	811.0999755859375	-41.13710403442365	276.8133544921875	741.6756591796875	-13.92613315582259	279.2174072265625	1447.650512695312	-481.9378051757809	269.0473327636719	1282.097045898438	-579.8627929687497	334.0453186035156	1203.5546875	-572.7857666015623	216.1657409667969	1202.927734375	-610.408752441406	280.1222839355469	1099.967163085938	-614.3670654296873	223.5872192382812	1088.56787109375	-560.954895019531	409.0986022949219	942.7227172851564	-574.4782714843748	446.21142578125	893.5843505859376	-517.1535644531248	410.6195068359375	858.1973266601564	-579.9061279296873	496.49072265625	822.8301391601564	-555.894836425781	251.3955230712891	1038.462158203125	-150.7121734619138	130.1978607177734	1018.088195800781	-321.3572082519529	254.0174255371094	1030.010131835938	-496.861633300781	227.1145324707031	894.6535034179688	-134.4638824462889	353.7659301757812	635.5445556640625	-167.8686523437499	401.3662719726562	671.1334228515625	-164.8344421386717	439.3909912109375	577.4824829101562	-202.4064331054686	378.1609191894531	559.4681396484375	-189.0868377685546	425.5938110351562	341.4699096679688	-187.0581665039062	482.240478515625	332.1648559570313	-206.390884399414	493.25927734375	248.3172912597657	-225.0006713867187	431.3077697753906	241.2084503173829	-209.5424804687499	423.710205078125	37.38582229614264	-298.5899963378906	585.056884765625	23.12402153015141	-213.4681091308594	638.0252075195312	45.11356353759772	-303.8064270019531	201.693115234375	926.1127319335939	-499.3088684082029	203.2455444335938	635.4443359375001	-483.930938720703	157.7791900634766	670.3972778320314	-497.142852783203	114.0739059448242	576.4625854492189	-469.355987548828	175.3710327148438	560.5872192382814	-462.3247680664061	-4.458639144897461	335.8086853027345	-454.8177490234374	-62.91193771362305	352.0262145996095	-459.8158874511718	-115.5346984863281	284.7940979003907	-441.5959167480468	-61.04843521118164	252.7383422851563	-431.1531066894531	-257.3232116699219	162.5043945312501	-370.3547973632812	-138.9215850830078	23.47864532470712	-411.88134765625	-104.7166213989258	33.24573898315437	-309.3049011230469	
43	0.168	385.0903015136719	1710.673950195312	-300.2498168945309	326.3000183105469	1654.283935546875	-226.9392852783199	328.6800537109375	1664.78955078125	-374.3701782226559	193.9324798583984	1489.74169921875	-317.8739624023434	115.8439407348633	1292.295532226562	-263.9703979492185	126.561882019043	1298.62158203125	-399.3081359863278	369.9849548339844	1325.2041015625	-307.4817810058591	256.15380859375	1436.28125	-141.350662231445	198.6281433105469	1277.277709960938	-61.58918762207003	253.1293029785156	1188.262451171875	-50.6864166259763	132.5369415283203	1197.840087890625	-58.55845260620091	171.6056213378906	1088.558471679688	-47.66334152221656	161.3062896728516	1084.562377929688	-129.4328918457029	255.5095825195312	899.0083618164062	-31.13508605957011	294.7109680175781	831.9987182617188	-63.36519241332989	221.3056335449219	811.5015258789062	-41.36648941040021	283.7844543457031	741.9956665039062	-14.24655532836898	285.64111328125	1448.566284179688	-481.2738952636715	274.9248352050781	1282.961181640625	-579.1063842773434	339.6135559082031	1204.183349609375	-572.3913574218748	221.6415252685547	1203.701782226563	-609.511535644531	285.3789978027344	1100.724487304688	-613.5953369140623	228.9652099609375	1089.427124023438	-559.8224487304685	413.3857116699219	942.6363525390626	-574.6616210937498	450.5946655273438	893.0950317382814	-517.2865600585935	414.4363403320312	858.1837768554689	-580.1915283203123	500.1820373535156	822.2322998046876	-556.7228393554685	257.6394348144531	1039.707153320312	-150.3870391845701	136.5858001708984	1018.518371582031	-321.7357482910154	261.0404052734375	1030.62744140625	-496.4750671386716	233.6263427734375	896.0048828125	-134.7378845214842	361.1763610839844	637.19140625	-167.2886505126952	408.8603515625	672.4689331054688	-166.496612548828	446.7543029785156	578.3583374023438	-203.0226135253905	385.6495361328125	560.7618408203125	-188.5597839355468	429.896728515625	341.4763488769532	-186.7437744140624	486.3685302734375	331.7769165039063	-206.2559356689452	496.507080078125	247.7033996582032	-224.9283905029296	434.4093322753906	241.3722229003907	-209.0026397705078	424.3807373046875	37.85931015014655	-298.2906188964844	585.7296142578125	22.40397071838384	-212.6908111572266	638.8883056640625	42.9986877441407	-304.2370910644531	208.7574157714844	926.0619506835939	-499.3500061035154	211.9297332763672	635.4122924804689	-484.2605590820311	165.9774627685547	669.9493408203126	-497.554229736328	123.172477722168	575.9262084960939	-470.2032775878905	184.2267608642578	560.2197265625001	-462.8466491699218	2.560471057891846	336.7174377441407	-456.1205749511718	-55.76467514038086	353.7095336914064	-460.5885314941406	-109.0451736450195	286.9562377929689	-442.4382629394531	-54.88981246948242	254.1269989013673	-432.2066345214843	-251.4171905517578	167.0673980712891	-370.6726989746093	-137.9205017089844	24.05809211730966	-411.6662902832031	-103.931396484375	33.42905426025398	-309.3863830566406	
44	0.172	391.1183471679688	1711.282592773438	-299.6013183593746	332.3551940917969	1655.017944335938	-226.097015380859	334.7781066894531	1665.726196289062	-373.769866943359	200.3173675537109	1490.517944335938	-317.3202514648434	122.2952117919922	1292.80224609375	-263.3433532714841	133.0624847412109	1299.045654296875	-398.8948669433591	376.4512329101562	1326.024536132812	-306.9065856933591	262.6401672363281	1436.848388671875	-140.8708953857419	205.4905395507812	1277.678100585938	-61.24927902221651	260.1572570800781	1188.688720703125	-50.50686645507786	139.5565643310547	1198.190795898438	-58.20950317382786	178.8575592041016	1089.132080078125	-47.5945663452146	168.4630584716797	1085.320068359375	-129.192916870117	262.7528381347656	899.458740234375	-31.38684844970683	301.6351623535156	832.4337158203125	-63.57539367675763	228.2682342529297	811.9754638671875	-41.4572334289549	290.6593322753906	742.3284301757812	-14.53274154663069	292.1533813476562	1449.34375	-480.7031860351559	280.8973388671875	1283.754760742188	-578.5240478515622	345.1362915039062	1204.857788085938	-571.999328613281	227.13623046875	1204.700439453125	-608.6500244140623	290.5738220214844	1101.567016601563	-612.7241210937498	234.1968383789062	1090.580444335938	-558.7286987304685	417.7001647949219	942.6290283203126	-574.7970581054685	454.7281188964844	892.7409057617189	-517.7609252929685	418.0188293457031	858.1796264648439	-580.6766357421873	503.9036865234375	821.6636962890626	-557.7268066406248	264.3033447265625	1041.189086914062	-150.1252441406248	143.0013427734375	1018.9345703125	-321.7606201171873	268.2058410644531	1031.107788085938	-496.3197326660154	240.1313629150391	897.3690795898438	-134.7430725097654	368.6234436035156	638.11865234375	-166.7353057861327	416.2220458984375	673.25341796875	-166.7767181396483	453.4696350097656	579.3848876953125	-203.5945587158202	392.62060546875	561.5695190429688	-187.9735717773436	434.1943969726562	341.7144165039063	-186.2721405029296	490.3888549804688	331.1356201171876	-206.1136016845702	499.6038208007812	247.1748352050782	-224.9786682128906	437.5183715820312	241.207504272461	-209.1125030517578	425.0318298339844	38.32757568359381	-298.1721496582031	586.5004272460938	22.06934928894048	-211.8082733154297	639.8805541992188	41.23228454589851	-304.9406127929688	215.8085327148438	926.1400146484376	-499.4757080078123	220.6758880615234	635.0999755859376	-483.6288146972655	174.8393096923828	669.6165771484376	-496.9218139648436	132.0555114746094	575.1840820312501	-470.4779968261718	193.6914520263672	559.5369262695314	-462.9487915039061	9.824305534362793	337.4120483398439	-457.2093505859374	-48.38966751098633	355.1220703125001	-461.5056762695312	-102.4831161499023	288.9741210937501	-443.1298522949218	-48.72057342529297	255.3006896972657	-433.6452331542968	-245.3426055908203	171.7061767578126	-371.3455810546874	-136.7582702636719	24.66931724548349	-411.2641296386719	-102.9057540893555	33.51120376586921	-309.6217956542969	
